# Blender v2.80 (sub 35) OBJ File: 'rugroom.blend'
# www.blender.org
mtllib simpletreatment.mtl
o ceil_v.ceil
v -8.030007 2.800882 0.000000
v -8.030007 2.800882 -8.425808
v 0.000000 2.800882 0.000000
v 0.000000 2.800882 -8.425808
v -8.030007 2.800882 -2.808603
v -8.030007 2.800882 -5.617205
v -5.353338 2.800882 -8.425808
v -2.676669 2.800882 -8.425808
v 0.000000 2.800882 -5.617205
v 0.000000 2.800882 -2.808603
v -2.676669 2.800882 0.000000
v -5.353338 2.800882 0.000000
v -2.676669 2.800882 -5.617205
v -2.676669 2.800882 -2.808603
v -5.353338 2.800882 -5.617205
v -5.353338 2.800882 -2.808603
vt 0.875000 0.666667
vt 0.791667 0.750000
vt 0.791667 0.666667
vt 0.708333 0.666667
vt 0.625000 0.750000
vt 0.625000 0.666667
vt 0.708333 0.750000
vt 0.708333 0.500000
vt 0.625000 0.583333
vt 0.625000 0.500000
vt 0.708333 0.583333
vt 0.791667 0.500000
vt 0.875000 0.500000
vt 0.791667 0.583333
vt 0.875000 0.750000
vt 0.875000 0.583333
vn 0.0000 1.0000 0.0000
usemtl None
s off
f 5/1/1 12/2/1 16/3/1
f 14/4/1 3/5/1 10/6/1
f 16/3/1 11/7/1 14/4/1
f 8/8/1 9/9/1 4/10/1
f 13/11/1 10/6/1 9/9/1
f 7/12/1 13/11/1 8/8/1
f 2/13/1 15/14/1 7/12/1
f 15/14/1 5/1/1 16/3/1
f 5/1/1 1/15/1 12/2/1
f 14/4/1 11/7/1 3/5/1
f 16/3/1 12/2/1 11/7/1
f 8/8/1 13/11/1 9/9/1
f 13/11/1 14/4/1 10/6/1
f 7/12/1 15/14/1 13/11/1
f 2/13/1 6/16/1 15/14/1
f 15/14/1 6/16/1 5/1/1
o wall1_v.wall1
v 0.000000 0.000000 0.000000
v 0.000000 2.800882 0.000000
v 0.000000 0.000000 -8.425808
v 0.000000 2.800882 -8.425808
v 0.000000 1.867255 -8.425808
v 0.000000 0.933627 -8.425808
v 0.000000 0.000000 -2.808603
v 0.000000 0.000000 -5.617205
v 0.000000 2.800882 -5.617205
v 0.000000 2.800882 -2.808603
v 0.000000 1.867255 0.000000
v 0.000000 0.933627 0.000000
v 0.000000 0.933627 -5.617205
v 0.000000 0.933627 -2.808603
v 0.000000 1.867255 -5.617205
v 0.000000 1.867255 -2.808603
vt 0.625000 0.666667
vt 0.541667 0.750000
vt 0.541667 0.666667
vt 0.458333 0.666667
vt 0.375000 0.750000
vt 0.375000 0.666667
vt 0.458333 0.750000
vt 0.458333 0.500000
vt 0.375000 0.583333
vt 0.375000 0.500000
vt 0.458333 0.583333
vt 0.541667 0.500000
vt 0.625000 0.500000
vt 0.541667 0.583333
vt 0.625000 0.583333
vt 0.625000 0.750000
vn 1.0000 0.0000 0.0000
usemtl None
s off
f 26/17/2 27/18/2 32/19/2
f 30/20/2 17/21/2 23/22/2
f 32/19/2 28/23/2 30/20/2
f 22/24/2 24/25/2 19/26/2
f 29/27/2 23/22/2 24/25/2
f 21/28/2 29/27/2 22/24/2
f 20/29/2 31/30/2 21/28/2
f 25/31/2 32/19/2 31/30/2
f 26/17/2 18/32/2 27/18/2
f 30/20/2 28/23/2 17/21/2
f 32/19/2 27/18/2 28/23/2
f 22/24/2 29/27/2 24/25/2
f 29/27/2 30/20/2 23/22/2
f 21/28/2 31/30/2 29/27/2
f 20/29/2 25/31/2 31/30/2
f 25/31/2 26/17/2 32/19/2
o wall2_v.wall2
v -8.030007 0.000000 0.000000
v -8.030007 2.800882 0.000000
v 0.000000 0.000000 0.000000
v 0.000000 2.800882 0.000000
v -8.030007 0.933627 0.000000
v -8.030007 1.867255 0.000000
v 0.000000 1.867255 0.000000
v 0.000000 0.933627 0.000000
v -5.353338 0.000000 0.000000
v -2.676669 0.000000 0.000000
v -2.676669 2.800882 0.000000
v -5.353338 2.800882 0.000000
v -2.676669 0.933627 0.000000
v -5.353338 0.933627 0.000000
v -2.676669 1.867255 0.000000
v -5.353338 1.867255 0.000000
vt 0.625000 0.916667
vt 0.541667 1.000000
vt 0.541667 0.916667
vt 0.458333 0.916667
vt 0.375000 1.000000
vt 0.375000 0.916667
vt 0.458333 1.000000
vt 0.458333 0.750000
vt 0.375000 0.833333
vt 0.375000 0.750000
vt 0.458333 0.833333
vt 0.541667 0.750000
vt 0.625000 0.750000
vt 0.541667 0.833333
vt 0.625000 0.833333
vt 0.625000 1.000000
vn 0.0000 0.0000 1.0000
usemtl None
s off
f 44/33/3 38/34/3 48/35/3
f 46/36/3 33/37/3 41/38/3
f 48/35/3 37/39/3 46/36/3
f 40/40/3 42/41/3 35/42/3
f 45/43/3 41/38/3 42/41/3
f 39/44/3 45/43/3 40/40/3
f 36/45/3 47/46/3 39/44/3
f 43/47/3 48/35/3 47/46/3
f 44/33/3 34/48/3 38/34/3
f 46/36/3 37/39/3 33/37/3
f 48/35/3 38/34/3 37/39/3
f 40/40/3 45/43/3 42/41/3
f 45/43/3 46/36/3 41/38/3
f 39/44/3 47/46/3 45/43/3
f 36/45/3 43/47/3 47/46/3
f 43/47/3 44/33/3 48/35/3
o wall3_v.wall3
v -8.030007 0.000000 -8.425808
v -8.030007 2.800882 -8.425808
v 0.000000 0.000000 -8.425808
v 0.000000 2.800882 -8.425808
v -8.030007 1.867255 -8.425808
v -8.030007 0.933627 -8.425808
v -2.676669 0.000000 -8.425808
v -5.353338 0.000000 -8.425808
v -5.353338 2.800882 -8.425808
v -2.676669 2.800882 -8.425808
v 0.000000 1.867255 -8.425808
v 0.000000 0.933627 -8.425808
v -5.353338 0.933627 -8.425808
v -2.676669 0.933627 -8.425808
v -5.353338 1.867255 -8.425808
v -2.676669 1.867255 -8.425808
vt 0.625000 0.416667
vt 0.541667 0.500000
vt 0.541667 0.416667
vt 0.458333 0.416667
vt 0.375000 0.500000
vt 0.375000 0.416667
vt 0.458333 0.500000
vt 0.458333 0.250000
vt 0.375000 0.333333
vt 0.375000 0.250000
vt 0.458333 0.333333
vt 0.541667 0.250000
vt 0.625000 0.250000
vt 0.541667 0.333333
vt 0.625000 0.333333
vt 0.625000 0.500000
vn 0.0000 0.0000 -1.0000
usemtl None
s off
f 58/49/4 59/50/4 64/51/4
f 62/52/4 51/53/4 55/54/4
f 64/51/4 60/55/4 62/52/4
f 54/56/4 56/57/4 49/58/4
f 61/59/4 55/54/4 56/57/4
f 53/60/4 61/59/4 54/56/4
f 50/61/4 63/62/4 53/60/4
f 57/63/4 64/51/4 63/62/4
f 58/49/4 52/64/4 59/50/4
f 62/52/4 60/55/4 51/53/4
f 64/51/4 59/50/4 60/55/4
f 54/56/4 61/59/4 56/57/4
f 61/59/4 62/52/4 55/54/4
f 53/60/4 63/62/4 61/59/4
f 50/61/4 57/63/4 63/62/4
f 57/63/4 58/49/4 64/51/4
o wall4_v.wall4
v -8.030007 0.000000 0.000000
v -8.030007 2.800882 0.000000
v -8.030007 0.000000 -8.425808
v -8.030007 2.800882 -8.425808
v -8.030007 0.000000 -5.617205
v -8.030007 0.000000 -2.808603
v -8.030007 0.933627 0.000000
v -8.030007 1.867255 0.000000
v -8.030007 2.800882 -2.808603
v -8.030007 2.800882 -5.617205
v -8.030007 1.867255 -8.425808
v -8.030007 0.933627 -8.425808
v -8.030007 0.933627 -2.808603
v -8.030007 0.933627 -5.617205
v -8.030007 1.867255 -2.808603
v -8.030007 1.867255 -5.617205
vt 0.625000 0.166667
vt 0.541667 0.250000
vt 0.541667 0.166667
vt 0.458333 0.166667
vt 0.375000 0.250000
vt 0.375000 0.166667
vt 0.458333 0.250000
vt 0.458333 0.000000
vt 0.375000 0.083333
vt 0.375000 0.000000
vt 0.541667 0.000000
vt 0.458333 0.083333
vt 0.625000 0.000000
vt 0.541667 0.083333
vt 0.625000 0.083333
vt 0.625000 0.250000
vn -1.0000 0.0000 0.0000
usemtl None
s off
f 74/65/5 75/66/5 80/67/5
f 78/68/5 67/69/5 69/70/5
f 80/67/5 76/71/5 78/68/5
f 71/72/5 70/73/5 65/74/5
f 70/73/5 78/68/5 69/70/5
f 72/75/5 77/76/5 71/72/5
f 66/77/5 79/78/5 72/75/5
f 73/79/5 80/67/5 79/78/5
f 74/65/5 68/80/5 75/66/5
f 78/68/5 76/71/5 67/69/5
f 80/67/5 75/66/5 76/71/5
f 71/72/5 77/76/5 70/73/5
f 70/73/5 77/76/5 78/68/5
f 72/75/5 79/78/5 77/76/5
f 66/77/5 73/79/5 79/78/5
f 73/79/5 74/65/5 80/67/5
o floor_v.floor
v -8.030007 0.000000 0.000000
v -8.030007 0.000000 -8.425808
v 0.000000 0.000000 0.000000
v 0.000000 0.000000 -8.425808
v -8.030007 0.000000 -5.617205
v -8.030007 0.000000 -2.808603
v -2.676669 0.000000 -8.425808
v -5.353338 0.000000 -8.425808
v 0.000000 0.000000 -2.808603
v 0.000000 0.000000 -5.617205
v -5.353338 0.000000 0.000000
v -2.676669 0.000000 0.000000
v -5.353338 0.000000 -5.617205
v -5.353338 0.000000 -2.808603
v -2.676669 0.000000 -5.617205
v -2.676669 0.000000 -2.808603
vt 0.375000 0.666667
vt 0.291667 0.750000
vt 0.291667 0.666667
vt 0.208333 0.666667
vt 0.125000 0.750000
vt 0.125000 0.666667
vt 0.208333 0.750000
vt 0.208333 0.500000
vt 0.125000 0.583333
vt 0.125000 0.500000
vt 0.208333 0.583333
vt 0.291667 0.500000
vt 0.375000 0.500000
vt 0.291667 0.583333
vt 0.375000 0.750000
vt 0.375000 0.583333
vn 0.0000 -1.0000 0.0000
usemtl None
s off
f 89/81/6 92/82/6 96/83/6
f 94/84/6 81/85/6 86/86/6
f 96/83/6 91/87/6 94/84/6
f 88/88/6 85/89/6 82/90/6
f 93/91/6 86/86/6 85/89/6
f 87/92/6 93/91/6 88/88/6
f 84/93/6 95/94/6 87/92/6
f 95/94/6 89/81/6 96/83/6
f 89/81/6 83/95/6 92/82/6
f 94/84/6 91/87/6 81/85/6
f 96/83/6 92/82/6 91/87/6
f 88/88/6 93/91/6 85/89/6
f 93/91/6 94/84/6 86/86/6
f 87/92/6 95/94/6 93/91/6
f 84/93/6 90/96/6 95/94/6
f 95/94/6 90/96/6 89/81/6
o area_rug_v.area_rug
v -5.353338 0.000000 -5.617205
v -5.353338 0.000000 -2.808603
v -2.676669 0.000000 -5.617205
v -2.676669 0.000000 -2.808603
vt 0.291667 0.583333
vt 0.208333 0.666667
vt 0.208333 0.583333
vt 0.291667 0.666667
vn 0.0000 -1.0000 0.0000
usemtl None
s off
f 99/97/7 98/98/7 97/99/7
f 99/97/7 100/100/7 98/98/7
o twall4_v.twall4
v -8.030007 0.933627 -2.808603
v -8.030007 0.933627 -5.617205
v -8.030007 1.867255 -2.808603
v -8.030007 1.867255 -5.617205
vt 0.541667 0.083333
vt 0.458333 0.166667
vt 0.458333 0.083333
vt 0.541667 0.166667
vn -1.0000 0.0000 0.0000
usemtl None
s off
f 103/101/8 102/102/8 101/103/8
f 103/101/8 104/104/8 102/102/8
o twall3_v.wall3.001
v -5.353338 0.933627 -8.425808
v -2.676669 0.933627 -8.425808
v -5.353338 1.867255 -8.425808
v -2.676669 1.867255 -8.425808
vt 0.541667 0.333333
vt 0.458333 0.416667
vt 0.458333 0.333333
vt 0.541667 0.416667
vn 0.0000 0.0000 -1.0000
usemtl None
s off
f 107/105/9 106/106/9 105/107/9
f 107/105/9 108/108/9 106/106/9
o twall1_v.wall1.001
v 0.000000 0.933627 -5.617205
v 0.000000 0.933627 -2.808603
v 0.000000 1.867255 -5.617205
v 0.000000 1.867255 -2.808603
vt 0.541667 0.583333
vt 0.458333 0.666667
vt 0.458333 0.583333
vt 0.541667 0.666667
vn 1.0000 0.0000 0.0000
usemtl None
s off
f 111/109/10 110/110/10 109/111/10
f 111/109/10 112/112/10 110/110/10
o twall2_v.wall2.001
v -2.676669 0.933627 0.000000
v -5.353338 0.933627 0.000000
v -2.676669 1.867255 0.000000
v -5.353338 1.867255 0.000000
vt 0.541667 0.833333
vt 0.458333 0.916667
vt 0.458333 0.833333
vt 0.541667 0.916667
vn 0.0000 0.0000 1.0000
usemtl None
s off
f 115/113/11 114/114/11 113/115/11
f 115/113/11 116/116/11 114/114/11
o tceil_v.tceil
v -2.676669 2.800882 -5.617205
v -2.676669 2.800882 -2.808603
v -5.353338 2.800882 -5.617205
v -5.353338 2.800882 -2.808603
vt 0.791667 0.583333
vt 0.708333 0.666667
vt 0.708333 0.583333
vt 0.791667 0.666667
vn 0.0000 1.0000 0.0000
usemtl None
s off
f 119/117/12 118/118/12 117/119/12
f 119/117/12 120/120/12 118/118/12
